<svg width="45" height="45" viewBox="0 0 45 45" fill="none" xmlns="http://www.w3.org/2000/svg">
<path d="M35.6062 32.3625H28.8938M32.25 29.0813V35.8125M32.25 41.25C34.6369 41.25 36.9261 40.3018 38.614 38.614C40.3018 36.9261 41.25 34.6369 41.25 32.25C41.25 29.8631 40.3018 27.5739 38.614 25.886C36.9261 24.1982 34.6369 23.25 32.25 23.25C29.8631 23.25 27.5739 24.1982 25.886 25.886C24.1982 27.5739 23.25 29.8631 23.25 32.25C23.25 34.6369 24.1982 36.9261 25.886 38.614C27.5739 40.3018 29.8631 41.25 32.25 41.25V41.25Z" stroke="#FF0000" stroke-opacity="0.67" stroke-miterlimit="10" stroke-linecap="round"/>
<path d="M41.25 16.2937C41.25 19.9875 40.2938 23.25 38.7938 26.0813C37.9538 25.188 36.94 24.476 35.8146 23.9891C34.6892 23.5022 33.4762 23.2506 32.25 23.25C27.2813 23.25 23.25 27.2813 23.25 32.25C23.25 34.5563 24.1313 36.6562 25.5562 38.25C24.8625 38.5688 24.225 38.8312 23.6625 39.0187C23.025 39.2438 21.975 39.2438 21.3375 39.0187C15.9 37.1625 3.75 29.4188 3.75 16.2937C3.75 10.5 8.41875 5.8125 14.175 5.8125C17.5687 5.8125 20.6063 7.4625 22.5 9.99375C23.4672 8.69778 24.7233 7.64511 26.1684 6.9193C27.6135 6.1935 29.2079 5.81454 30.825 5.8125C36.5812 5.8125 41.25 10.5 41.25 16.2937Z" fill="#FF0000" stroke="#FF0000" stroke-width="1.5" stroke-linecap="round" stroke-linejoin="round"/>
</svg>
